<svg xmlns="http://www.w3.org/2000/svg" xmlns:xlink="http://www.w3.org/1999/xlink" viewBox="0 0 206.41 4.99"><defs><style>.cls-1,.cls-3{fill:none;}.cls-2{clip-path:url(#clip-path);}.cls-3{stroke:#ed9045;stroke-width:1.33px;}</style><clipPath id="clip-path" transform="translate(0 0)"><rect class="cls-1" x="0.46" width="205.5" height="5"/></clipPath></defs><title>Asset 8</title><g id="Layer_2" data-name="Layer 2"><g id="Layer_1-2" data-name="Layer 1"><g class="cls-2"><path class="cls-3" d="M.46,2.5a8.12,8.12,0,0,1,10.27,0A8.13,8.13,0,0,0,21,2.5a8.12,8.12,0,0,1,10.27,0,8.13,8.13,0,0,0,10.28,0,8.12,8.12,0,0,1,10.27,0,8.13,8.13,0,0,0,10.28,0,8.12,8.12,0,0,1,10.27,0,8.13,8.13,0,0,0,10.28,0,8.12,8.12,0,0,1,10.27,0,8.13,8.13,0,0,0,10.28,0,8.12,8.12,0,0,1,10.27,0,8.13,8.13,0,0,0,10.28,0A8.12,8.12,0,0,1,134,2.5a8.13,8.13,0,0,0,10.28,0,8.12,8.12,0,0,1,10.27,0,8.13,8.13,0,0,0,10.28,0,8.12,8.12,0,0,1,10.27,0,8.13,8.13,0,0,0,10.28,0,8.12,8.12,0,0,1,10.27,0A8.13,8.13,0,0,0,206,2.5" transform="translate(0 0)"/></g></g></g></svg>
