<svg xmlns="http://www.w3.org/2000/svg" viewBox="0 0 872.44 467.56"><defs><style>.cls-1{fill:#052f4d;}.cls-2{font-size:217.55px;font-family:Roboto-Light, Roboto;}.cls-2,.cls-4,.cls-5{fill:#fff;}.cls-3{fill:none;stroke:#fff;stroke-linecap:square;stroke-linejoin:round;stroke-width:3.83px;}.cls-5{font-size:114.79px;font-family:FrederickatheGreat-Regular, Fredericka the Great;}</style></defs><title>Asset 7</title><g id="Layer_2" data-name="Layer 2"><g id="Layer_1-2" data-name="Layer 1"><ellipse class="cls-1" cx="436.22" cy="234.4" rx="420.91" ry="218.11"/><text class="cls-2" transform="translate(210.49 338.72)">F ISK</text><path class="cls-3" d="M273.35,391.7s7.23-20.24,17.64-44.55c.45-1.06,1-2.09,1.38-3.2,12.7-38.37,30.83-65.56,49-74.63,0,0,63.46-27.19,45.33,36.26,0,0-18.13,54.39-90.65,54.39l9.06,36.26"/><circle class="cls-4" cx="366.26" cy="285.19" r="2.27"/><text class="cls-5" transform="translate(332.9 136.71)">รก la</text><path class="cls-1" d="M436.22,7.65c236.69,0,428.57,101.24,428.57,226.13S672.91,459.91,436.22,459.91,7.65,358.67,7.65,233.78,199.53,7.65,436.22,7.65m0-7.65C377.8,0,321.12,6,267.74,18,216,29.49,169.57,46,129.61,67.12c-40.3,21.26-72,46.11-94.25,73.86C11.9,170.25,0,201.47,0,233.78s11.9,63.54,35.36,92.81c22.25,27.75,54,52.6,94.25,73.86,40,21.08,86.43,37.62,138.13,49.16,53.38,11.91,110.06,17.95,168.48,17.95s115.1-6,168.48-17.95c51.7-11.54,98.17-28.08,138.13-49.16,40.29-21.26,72-46.11,94.25-73.86,23.46-29.27,35.36-60.5,35.36-92.81s-11.9-63.53-35.36-92.8c-22.25-27.75-54-52.6-94.25-73.86C702.87,46,656.4,29.49,604.7,18,551.32,6,494.64,0,436.22,0Z"/></g></g></svg>
